{"title":"Captain.America.The.First.Avenger.2011.BRRip.x264.AC3.RoSub-Psyc","uid":6744519,"size":2111800450,"categoryP":"video","categoryS":"movies","magnet":"?xt=urn:btih:3110852400e9284dc8290ca5efded68072c05189&amp;dn=Captain.America.The.First.Avenger.2011.BRRip.x264.AC3.RoSub-Psyc&amp;tr=udp%3A%2F%2Ftracker.openbittorrent.com%3A80&amp;tr=udp%3A%2F%2Fopen.demonii.com%3A1337&amp;tr=udp%3A%2F%2Ftracker.coppersurfer.tk%3A6969&amp;tr=udp%3A%2F%2Fexodus.desync.com%3A6969","seeders":0,"leechers":0,"uploader":"Francisco1206","files":-1,"time":1318631738,"description":"After being deemed unfit for military service, Steve Rogers volunteers for a top secret research project that turns him into Captain America, a superhero dedicated to defending America's ideals.\n\nSOURCE: Captain.America.The.First.Avenger.720p.Bluray.x264-MHD\n\nSAMPLE INCLUDED:60s/16.1mb\n\n\nCAST:\n\nChris Evans.............Captain America / Steve Rogers\nHayley Atwell...........Peggy Carter\nSebastian Stan..........James Buchanan 'Bucky' Barnes\nTommy Lee Jones.........Colonel Chester Phillips\nHugo Weaving............Johann Schmidt / Red Skull\nDominic Cooper..........Howard Stark\nRichard Armitage........Heinz Kruger\nStanley Tucci...........Dr. Abraham Erskine\nSamuel L. Jackson.......Nick Fury\nToby Jones..............Dr. Arnim Zola\nNeal McDonough..........Timothy 'Dum Dum' Dugan\nDerek Luke..............Gabe Jones\nKenneth Choi............Jim Morita\nJJ Feild................James Montgomery Falsworth\nBruno Ricci.............Jacques Dernier \n\nGeneral\n*******\nFormat                                   : Matroska\nFormat version                           : Version 2\nFile size                                : 1.95 GiB\nDuration                                 : 2h 4mn\nOverall bit rate                         : 2 249 Kbps\nEncoded date                             : UTC 2011-10-14 20:29:34\nWriting application                      : mkvmerge v5.0.0 ('Die Wahre Liebe') built on Sep 25 2011 20:33:49\nWriting library                          : libebml v1.2.2 + libmatroska v1.3.0\n\nVideo\n*****\nID                                       : 1\nFormat                                   : AVC\nFormat/Info                              : Advanced Video Codec\nFormat profile                           : &lt;a class=&quot;__cf_email__&quot; href=&quot;/cdn-cgi/l/email-protection&quot; data-cfemail=&quot;1e537f77705e522d302e&quot;&gt;[email&amp;#160;protected]&lt;/a&gt;&lt;script cf-hash='f9e31' type=&quot;text/javascript&quot;&gt;\n/* &lt;![CDATA[ */!function(){try{var t=&quot;currentScript&quot;in document?document.currentScript:function(){for(var t=document.getElementsByTagName(&quot;script&quot;),e=t.length;e--;)if(t[e].getAttribute(&quot;cf-hash&quot;))return t[e]}();if(t&amp;&amp;t.previousSibling){var e,r,n,i,c=t.previousSibling,a=c.getAttribute(&quot;data-cfemail&quot;);if(a){for(e=&quot;&quot;,r=parseInt(a.substr(0,2),16),n=2;a.length-n;n+=2)i=parseInt(a.substr(n,2),16)^r,e+=String.fromCharCode(i);e=document.createTextNode(e),c.parentNode.replaceChild(e,c)}}}catch(u){}}();/* ]]&gt; */&lt;/script&gt;\nFormat settings, CABAC                   : Yes\nFormat settings, ReFrames                : 4 frames\nMuxing mode                              : Header stripping\nCodec ID                                 : V_MPEG4/ISO/AVC\nDuration                                 : 2h 4mn\nBit rate                                 : 1 800 Kbps\nWidth                                    : 720 pixels\nHeight                                   : 304 pixels\nDisplay aspect ratio                     : 2.35:1\nFrame rate mode                          : Variable\nFrame rate                               : 23.976 fps\nColor space                              : YUV\nChroma subsampling                       : 4:2:0\nBit depth                                : 8 bits\nScan type                                : Progressive\nBits/(Pixel*Frame)                       : 0.343\nStream size                              : 1.52 GiB (78%)\nWriting library                          : x264 core 112\n\n\nAudio\n*****\nID                                       : 2\nFormat                                   : AC-3\nFormat/Info                              : Audio Coding 3\nMode extension                           : CM (complete main)\nMuxing mode                              : Header stripping\nCodec ID                                 : A_AC3\nDuration                                 : 2h 4mn\nBit rate mode                            : Constant\nBit rate                                 : 448 Kbps\nChannel(s)                               : 6 channels\nChannel positions                        : Front: L C R, Side: L R, LFE\nSampling rate                            : 48.0 KHz\nBit depth                                : 16 bits\nCompression mode                         : Lossy\nStream size                              : 398 MiB (20%)\nLanguage                                 : English\n\n\nText(subtitles)\n***************\nID                                       : 3\nFormat                                   : UTF-8 (srt.)\nCodec ID                                 : S_TEXT/UTF8\nCodec ID/Info                            : UTF-8 Plain Text\nLanguage                                 : ROMANiAN\n\n\n\nPLEASE SEED FOR AS LONG AS POSSIBLE!\n","torrent":{"xt":"urn:btih:3110852400e9284dc8290ca5efded68072c05189","amp;dn":"Captain.America.The.First.Avenger.2011.BRRip.x264.AC3.RoSub-Psyc","amp;tr":["udp%3A%2F%2Ftracker.openbittorrent.com%3A80","udp%3A%2F%2Fopen.demonii.com%3A1337","udp%3A%2F%2Ftracker.coppersurfer.tk%3A6969","udp%3A%2F%2Fexodus.desync.com%3A6969"],"infoHash":"3110852400e9284dc8290ca5efded68072c05189","infoHashBuffer":{"type":"Buffer","data":[49,16,133,36,0,233,40,77,200,41,12,165,239,222,214,128,114,192,81,137]},"announce":[],"urlList":[]}}